#N canvas 292 184 718 583 10;
#X declare -stdpath Fraise;
#X declare -lib pof;
#X obj 10 8 declare -stdpath Fraise;
#X obj 10 31 pied/pied 0 12346;
#X obj 252 221 loadbang;
#N canvas 0 228 562 296 SET_ZEROS 0;
#X obj 57 15 r MOT1-status-ok;
#X obj 70 36 r MOT2-status-ok;
#X obj 83 59 r MOT3-status-ok;
#X obj 57 152 &&;
#X obj 70 128 t b f;
#X obj 70 107 &&;
#X obj 83 83 t b f;
#X obj 230 96 t b b;
#X obj 57 174 sel 1;
#X obj 57 203 spigot;
#X msg 230 121 1;
#X obj 57 246 outlet;
#X obj 230 26 inlet;
#X obj 257 204 s MOT1-RESET_ZERO;
#X obj 276 180 s MOT2-RESET_ZERO;
#X obj 288 156 s MOT3-RESET_ZERO;
#X obj 257 121 b;
#X msg 114 223 0;
#X obj 57 225 t b b;
#X obj 321 35 bng 15 250 50 0 empty empty empty 17 7 0 10 -262144 -1
-1;
#X obj 230 48 del 1000;
#X connect 0 0 3 0;
#X connect 1 0 5 0;
#X connect 2 0 6 0;
#X connect 3 0 8 0;
#X connect 4 0 3 0;
#X connect 4 1 3 1;
#X connect 5 0 4 0;
#X connect 6 0 5 0;
#X connect 6 1 5 1;
#X connect 7 0 10 0;
#X connect 7 1 16 0;
#X connect 8 0 9 0;
#X connect 9 0 18 0;
#X connect 10 0 9 1;
#X connect 12 0 20 0;
#X connect 16 0 13 0;
#X connect 16 0 14 0;
#X connect 16 0 15 0;
#X connect 17 0 9 1;
#X connect 18 0 11 0;
#X connect 18 1 17 0;
#X connect 19 0 16 0;
#X connect 20 0 7 0;
#X restore 280 257 pd SET_ZEROS;
#N canvas 442 97 837 566 NETWORK/SEQUENCE 0;
#X obj 147 260 s reSend;
#X obj 121 96 f;
#X obj 150 96 r reSend;
#X obj 63 401 s piedOn;
#X obj 121 11 PdServeur NET 424242;
#X obj 63 330 r NET-fromclients;
#X obj 63 352 route CLIENT;
#X obj 98 503 s NET-toclients;
#X obj 121 138 s NET-toclients;
#X obj 98 481 list prepend CLIENT Echo;
#N canvas 5 74 450 300 test_connected 0;
#X obj 130 50 inlet;
#X obj 130 79 route test;
#X obj 130 99 t b b;
#X obj 130 121 del 1000;
#X msg 130 143 0;
#X msg 169 144 1;
#X obj 130 169 change;
#X obj 130 194 tgl 15 0 \$0-CONNECTED empty CONNECTED 17 7 0 10 -262144
-1 -1 0 1;
#X obj 109 218 outlet;
#X connect 0 0 1 0;
#X connect 1 0 2 0;
#X connect 2 0 3 0;
#X connect 2 1 5 0;
#X connect 3 0 4 0;
#X connect 4 0 6 0;
#X connect 5 0 6 0;
#X connect 6 0 7 0;
#X connect 6 0 8 0;
#X restore 79 525 pd test_connected;
#X obj 79 546 tgl 15 0 empty empty empty 17 7 0 10 -262144 -1 -1 0
1;
#X obj 120 169 r NET-nbclients;
#X obj 120 194 sel 0;
#X obj 147 218 b;
#X obj 147 239 del 200;
#X obj 278 42 r toClient;
#X obj 278 61 list prepend CLIENT;
#X obj 278 81 s NET-toclients;
#X obj 140 449 ggee/shell;
#X msg 164 412 ro;
#X msg 130 412 rw;
#N canvas 11 74 591 317 test-rw 0;
#X msg 90 127 mount | grep /dev/mmcblk0p2 | cut -d' ' -f 6 | cut -c
2-3;
#X obj 90 181 route ro rw;
#X msg 90 202 ro;
#X msg 127 201 rw;
#X obj 90 227 outlet;
#X obj 90 98 metro 2000;
#X obj 90 54 loadbang;
#X obj 90 76 tgl 15 0 empty empty empty 17 7 0 10 -262144 -1 -1 0 1
;
#X obj 90 154 ggee/shell;
#X connect 0 0 8 0;
#X connect 1 0 2 0;
#X connect 1 1 3 0;
#X connect 2 0 4 0;
#X connect 3 0 4 0;
#X connect 5 0 0 0;
#X connect 7 0 5 0;
#X connect 8 0 1 0;
#X restore 483 206 pd test-rw;
#X obj 483 229 list prepend rorw;
#X obj 289 434 list trim;
#X obj 289 462 s CONTROL;
#X obj 467 320 s toClient;
#X obj 480 128 r seq-conduite-line;
#X obj 468 45 r toSeq;
#X obj 468 68 s seq-conduite-rcv;
#X obj 467 104 r seq-conduite-snd;
#X obj 467 174 list prepend seq;
#X obj 480 150 list prepend line;
#X obj 63 374 route piedOn Echo rw ro seq;
#X obj 220 430 s toSeq;
#X obj 289 403 r seq-conduite-line;
#X obj 502 256 r MONITOR;
#X obj 502 278 list prepend monitor;
#X obj 648 256 r seq-conduite-dump;
#X msg 583 33 dump seq-conduite-dump;
#X obj 231 259 r NET-nbclients;
#X obj 231 281 > 0;
#N canvas 628 147 450 300 fruits_present 0;
#X obj 48 64 route present;
#X obj 48 44 fruit/receive Mot1;
#X obj 165 64 route present;
#X obj 283 63 route present;
#X obj 48 174 &&;
#X obj 59 151 t b f;
#X obj 165 116 &&;
#X obj 176 93 t b f;
#X obj 285 202 &&;
#X obj 296 179 t b f;
#X obj 296 156 route present;
#X obj 296 136 fruit/receive Lampes;
#X obj 165 44 fruit/receive Mot2;
#X obj 283 43 fruit/receive Mot3;
#X obj 48 196 change;
#X obj 48 218 outlet;
#X connect 0 0 4 0;
#X connect 1 0 0 0;
#X connect 2 0 6 0;
#X connect 3 0 7 0;
#X connect 4 0 14 0;
#X connect 5 0 4 0;
#X connect 5 1 4 1;
#X connect 6 0 5 0;
#X connect 7 0 6 0;
#X connect 7 1 6 1;
#X connect 9 0 8 0;
#X connect 9 1 8 1;
#X connect 10 0 9 0;
#X connect 11 0 10 0;
#X connect 12 0 2 0;
#X connect 13 0 3 0;
#X connect 14 0 15 0;
#X restore 121 56 pd fruits_present;
#X obj 231 303 change;
#X obj 231 325 sel 1 0;
#X obj 121 76 tgl 15 0 empty empty empty 17 7 0 10 -262144 -1 -1 1
1;
#X obj 121 116 list prepend CLIENT fruitsOK;
#X obj 648 278 list prepend seq;
#X connect 1 0 46 0;
#X connect 2 0 1 0;
#X connect 5 0 6 0;
#X connect 6 0 33 0;
#X connect 9 0 7 0;
#X connect 10 0 11 0;
#X connect 12 0 13 0;
#X connect 13 1 14 0;
#X connect 14 0 15 0;
#X connect 15 0 0 0;
#X connect 16 0 17 0;
#X connect 17 0 18 0;
#X connect 20 0 19 0;
#X connect 21 0 19 0;
#X connect 22 0 23 0;
#X connect 23 0 26 0;
#X connect 24 0 25 0;
#X connect 27 0 32 0;
#X connect 28 0 29 0;
#X connect 30 0 31 0;
#X connect 31 0 26 0;
#X connect 32 0 31 0;
#X connect 33 0 3 0;
#X connect 33 1 10 0;
#X connect 33 1 9 0;
#X connect 33 2 21 0;
#X connect 33 3 20 0;
#X connect 33 4 34 0;
#X connect 33 5 24 0;
#X connect 35 0 24 0;
#X connect 36 0 37 0;
#X connect 37 0 26 0;
#X connect 38 0 47 0;
#X connect 39 0 29 0;
#X connect 40 0 41 0;
#X connect 41 0 43 0;
#X connect 42 0 45 0;
#X connect 43 0 44 0;
#X connect 44 0 21 0;
#X connect 44 1 20 0;
#X connect 45 0 1 0;
#X connect 46 0 8 0;
#X connect 47 0 26 0;
#X restore 164 428 pd NETWORK/SEQUENCE;
#X obj 164 368 seq/main conduite;
#X msg 164 344 load \$1;
#N canvas 5 75 535 485 olds 0;
#X text 303 90 = 5m / 5mn / 1mn;
#N canvas 562 289 718 471 Cycle 0;
#X obj 180 -24 r CYCLEplay;
#X obj 180 26 sel 0 1;
#X obj 213 249 r CYCLEplay;
#X obj 180 271 spigot;
#X obj 199 49 s CYCLEbegin;
#X obj 180 293 s CYCLEbegin;
#X obj 180 101 r CYCLEbegin;
#N canvas 1021 136 505 315 homing 0;
#X obj 145 21 inlet;
#X obj 101 184 t b b;
#X obj 101 145 spigot 1;
#X obj 198 154 tgl 15 0 empty empty empty 17 7 0 10 -262144 -1 -1 0
1;
#X msg 198 125 0;
#X msg 229 124 1;
#X obj 101 111 r homingDone;
#X obj 145 46 t b b;
#X obj 101 215 outlet;
#X obj 198 98 r CYCLEabort;
#X obj 278 243 s Avance-AvanceG-ramp-params;
#X msg 278 220 speed \$1;
#X obj 293 175 r CYCLEspeedRecule;
#X obj 249 172 t b b;
#X obj 249 265 s doHoming;
#X obj 278 198 200;
#X obj 337 128 bng 15 250 50 0 empty empty empty 17 7 0 10 -262144
-1 -1;
#X connect 0 0 7 0;
#X connect 1 0 8 0;
#X connect 1 1 4 0;
#X connect 2 0 1 0;
#X connect 3 0 2 1;
#X connect 4 0 3 0;
#X connect 5 0 3 0;
#X connect 6 0 2 0;
#X connect 7 0 13 0;
#X connect 7 1 5 0;
#X connect 9 0 4 0;
#X connect 11 0 10 0;
#X connect 12 0 15 1;
#X connect 13 0 14 0;
#X connect 13 1 15 0;
#X connect 15 0 11 0;
#X restore 180 151 pd homing;
#N canvas 309 108 530 279 Avance 0;
#X obj 214 56 inlet;
#X obj 53 220 t b b;
#X obj 53 181 spigot 1;
#X obj 150 190 tgl 15 0 empty empty empty 17 7 0 10 -262144 -1 -1 0
1;
#X msg 150 161 0;
#X msg 181 160 1;
#X obj 214 81 t b b;
#X obj 53 251 outlet;
#X obj 231 223 s PositionGoto;
#X obj 246 167 r CYCLElength;
#X obj 231 200 f;
#X obj 53 9 r POSconsign;
#X obj 68 53 r CYCLElength;
#X obj 53 77 ==;
#X obj 53 98 sel 0 1;
#X obj 53 149 del 10000;
#X msg 53 125 stop;
#X obj 53 32 change;
#X obj 150 11 r CYCLEbegin;
#X obj 163 35 r CYCLEabort;
#X obj 11 114 tgl 15 0 empty empty empty 17 7 0 10 -262144 -1 -1 0
1;
#X obj 19 44 bng 15 250 50 0 empty empty empty 17 7 0 10 -262144 -1
-1;
#X obj 231 133 t b b;
#X obj 335 225 s Avance-AvanceG-ramp-params;
#X msg 335 202 speed \$1;
#X obj 350 157 r CYCLEspeedAvance;
#X obj 335 180 f;
#X connect 0 0 6 0;
#X connect 1 0 7 0;
#X connect 1 1 4 0;
#X connect 2 0 1 0;
#X connect 3 0 2 1;
#X connect 4 0 3 0;
#X connect 4 0 16 0;
#X connect 5 0 3 0;
#X connect 6 0 22 0;
#X connect 6 1 5 0;
#X connect 9 0 10 1;
#X connect 10 0 8 0;
#X connect 11 0 17 0;
#X connect 12 0 13 1;
#X connect 13 0 14 0;
#X connect 13 0 20 0;
#X connect 14 0 16 0;
#X connect 14 1 15 0;
#X connect 15 0 2 0;
#X connect 16 0 15 0;
#X connect 17 0 13 0;
#X connect 18 0 4 0;
#X connect 19 0 4 0;
#X connect 21 0 13 0;
#X connect 22 0 10 0;
#X connect 22 1 26 0;
#X connect 24 0 23 0;
#X connect 25 0 26 1;
#X connect 26 0 24 0;
#X restore 180 183 pd Avance;
#X obj 323 -11 tgl 40 0 CYCLEplay CYCLEplay-rcv CYCLEplay -15 -8 0
14 -4034 -1 -1 0 1;
#X obj 510 -11 r CYCLEplay;
#X msg 510 13 set \$1;
#X obj 510 34 s CYCLEplay-rcv;
#N canvas 188 343 514 334 Recule 0;
#X obj 220 84 inlet;
#X obj 53 220 t b b;
#X obj 53 181 spigot 1;
#X obj 150 190 tgl 15 0 empty empty empty 17 7 0 10 -262144 -1 -1 0
1;
#X msg 150 161 0;
#X msg 181 160 1;
#X obj 220 109 t b b;
#X obj 53 251 outlet;
#X obj 220 230 s PositionGoto;
#X obj 53 9 r POSconsign;
#X obj 53 98 sel 0 1;
#X obj 53 149 del 10000;
#X msg 53 125 stop;
#X obj 53 32 change;
#X obj 150 11 r CYCLEbegin;
#X obj 165 34 r CYCLEabort;
#X obj 220 149 t b b;
#X obj 345 235 s Avance-AvanceG-ramp-params;
#X msg 345 212 speed \$1;
#X obj 345 190 f;
#X obj 360 167 r CYCLEspeedRecule;
#X obj 220 207 f -6;
#X obj 53 77 <= -4;
#X msg 6 13 set -1;
#X connect 0 0 6 0;
#X connect 1 0 7 0;
#X connect 1 1 4 0;
#X connect 2 0 1 0;
#X connect 3 0 2 1;
#X connect 4 0 3 0;
#X connect 4 0 12 0;
#X connect 5 0 3 0;
#X connect 6 0 16 0;
#X connect 6 1 5 0;
#X connect 9 0 13 0;
#X connect 10 0 12 0;
#X connect 10 1 11 0;
#X connect 11 0 2 0;
#X connect 12 0 11 0;
#X connect 13 0 22 0;
#X connect 14 0 4 0;
#X connect 15 0 4 0;
#X connect 16 0 21 0;
#X connect 16 1 19 0;
#X connect 18 0 17 0;
#X connect 19 0 18 0;
#X connect 20 0 19 1;
#X connect 21 0 8 0;
#X connect 22 0 10 0;
#X connect 23 0 13 0;
#X restore 180 212 pd Recule;
#X obj 42 -22 r CYCLEstop;
#X obj 81 45 s CYCLEplay;
#X msg 81 23 0;
#X obj 180 -1 change;
#X obj 61 72 s CYCLEabort;
#X obj 414 -10 bng 30 250 50 0 CYCLEstop empty CYCLEstop -10 -8 0 10
-258113 -1 -1;
#X msg 42 98 0;
#X obj 42 120 s Vitesse;
#X obj 42 1 t b b b;
#X obj 64 182 s CYCLEavanceBegin;
#X obj 65 213 s CYCLEreculeBegin;
#N canvas 898 325 406 419 Conversions-longueur-vitesse 0;
#X obj 38 217 s CYCLElength;
#X obj 53 103 r stepcm;
#X obj 38 123 *;
#X text 62 122 step/mn;
#X obj 154 172 r stepmn_by_speed;
#X obj 126 173 /;
#X obj 126 151 /;
#X obj 120 363 s Avance-AvanceG-ramp-params;
#X msg 120 340 speed \$1;
#X obj 223 33 r CYCLElength;
#X floatatom 223 61 5 0 0 0 - - -, f 5;
#X text 148 147 step/mn;
#X obj 38 30 inlet;
#X floatatom 65 173 5 0 0 0 - - -, f 5;
#X obj 16 102 bng 15 250 50 0 empty empty empty 17 7 0 10 -262144 -1
-1;
#X obj 38 168 i;
#X obj 38 57 unpack f f f;
#X obj 295 172 r stepmn_by_speed;
#X obj 267 173 /;
#X obj 267 151 /;
#X text 289 147 step/mn;
#X obj 126 223 s CYCLEspeedAvance;
#X floatatom 146 202 5 0 0 0 - - -, f 5;
#X floatatom 286 199 5 0 0 0 - - -, f 5;
#X obj 267 219 s CYCLEspeedRecule;
#X obj 135 295 r CYCLEspeedAvance;
#X obj 120 318 f;
#X msg 102 25 1000 10 5;
#X msg 356 90 500 5 1.5;
#X msg 139 47 500 5 1;
#X msg 191 77 900 9 2;
#X connect 1 0 2 1;
#X connect 2 0 6 0;
#X connect 2 0 13 0;
#X connect 2 0 15 0;
#X connect 2 0 19 0;
#X connect 4 0 5 1;
#X connect 5 0 22 0;
#X connect 5 0 21 0;
#X connect 6 0 5 0;
#X connect 8 0 7 0;
#X connect 9 0 10 0;
#X connect 12 0 16 0;
#X connect 14 0 2 0;
#X connect 15 0 0 0;
#X connect 16 0 2 0;
#X connect 16 1 6 1;
#X connect 16 2 19 1;
#X connect 17 0 18 1;
#X connect 18 0 24 0;
#X connect 18 0 23 0;
#X connect 19 0 18 0;
#X connect 25 0 26 1;
#X connect 26 0 8 0;
#X connect 27 0 16 0;
#X connect 29 0 16 0;
#X connect 30 0 16 0;
#X restore 250 198 pd Conversions-longueur-vitesse;
#X obj 180 126 t b b;
#X obj 250 177 list prepend;
#X obj 319 155 r CYCLE_cm_mn;
#X obj 461 75 r CYCLElength;
#X floatatom 461 103 5 0 0 1 steps - -, f 5;
#X obj 500 178 r CYCLEavanceBegin;
#X obj 528 223 r CYCLEreculeBegin;
#X obj 491 268 timer;
#X obj 545 266 timer;
#X obj 479 349 print mesureAvanceTime;
#X obj 543 323 print mesureReculeTime;
#X obj 418 317 / 60000;
#X obj 540 295 / 60000;
#X obj 313 87 bng 15 250 50 0 empty empty empty 17 7 0 10 -262144 -1
-1;
#X obj 25 157 bng 15 250 50 0 empty empty empty 17 7 0 10 -262144 -1
-1;
#X obj 86 97 del 1000;
#X msg 130 16 stop;
#X connect 0 0 17 0;
#X connect 1 1 4 0;
#X connect 1 1 39 0;
#X connect 1 1 42 0;
#X connect 2 0 3 1;
#X connect 3 0 5 0;
#X connect 6 0 26 0;
#X connect 7 0 8 0;
#X connect 7 0 23 0;
#X connect 8 0 13 0;
#X connect 8 0 24 0;
#X connect 10 0 11 0;
#X connect 11 0 12 0;
#X connect 13 0 3 0;
#X connect 14 0 22 0;
#X connect 16 0 15 0;
#X connect 17 0 1 0;
#X connect 20 0 21 0;
#X connect 22 0 20 0;
#X connect 22 0 40 0;
#X connect 22 0 41 0;
#X connect 22 1 18 0;
#X connect 22 2 16 0;
#X connect 26 0 7 0;
#X connect 26 1 27 0;
#X connect 27 0 25 0;
#X connect 28 0 27 1;
#X connect 29 0 30 0;
#X connect 31 0 33 0;
#X connect 31 0 34 1;
#X connect 32 0 33 1;
#X connect 32 0 34 0;
#X connect 33 0 37 0;
#X connect 34 0 38 0;
#X connect 37 0 35 0;
#X connect 38 0 36 0;
#X connect 41 0 20 0;
#X connect 42 0 41 0;
#X restore 276 285 pd Cycle;
#X obj 51 342 tgl 40 0 CYCLEplay CYCLEplay-rcv CYCLEplay -15 -8 0 14
-4034 -1 -1 0 1;
#X obj 132 343 bng 30 250 50 0 CYCLEstop empty CYCLEstop -10 -8 0 10
-258113 -1 -1;
#N canvas 667 141 652 608 States 0;
#X obj 78 35 tgl 15 0 empty empty empty 17 7 0 10 -262144 -1 -1 0 1
;
#N canvas 773 344 506 358 fruitAvanceConnected 0;
#X obj 76 22 inlet;
#X obj 76 296 outlet;
#X msg 283 205 color 13 13 22;
#X msg 382 204 color 16 16 22;
#X obj 125 92 t b f;
#X obj 76 92 * 2;
#X obj 76 131 +;
#X obj 91 171 sel 0 1 2 3;
#X obj 76 252 == 3;
#X msg 185 204 color 26 26 22;
#X msg 91 203 color 23 23 22;
#X obj 193 106 loadbang;
#X msg 193 126 0;
#X obj 125 42 route present;
#X obj 133 254 s fruitAvanceConnected;
#X obj 148 134 outlet;
#X obj 125 19 fruit/receive Lyre;
#X connect 0 0 5 0;
#X connect 2 0 14 0;
#X connect 3 0 14 0;
#X connect 4 0 6 0;
#X connect 4 1 6 1;
#X connect 4 1 15 0;
#X connect 5 0 6 0;
#X connect 6 0 7 0;
#X connect 6 0 8 0;
#X connect 7 0 10 0;
#X connect 7 1 9 0;
#X connect 7 2 2 0;
#X connect 7 3 3 0;
#X connect 8 0 1 0;
#X connect 9 0 14 0;
#X connect 10 0 14 0;
#X connect 11 0 12 0;
#X connect 12 0 7 0;
#X connect 13 0 4 0;
#X connect 16 0 13 0;
#X restore 78 96 pd fruitAvanceConnected;
#N canvas 439 326 626 384 piedUSBConnected 0;
#X obj 76 22 inlet;
#X obj 76 296 outlet;
#X msg 283 223 color 13 13 22;
#X msg 382 222 color 16 16 22;
#X obj 125 20 r Fr2;
#X obj 125 42 route 1;
#X obj 125 64 route actif;
#X obj 125 92 t b f;
#X obj 76 92 * 2;
#X obj 76 131 +;
#X obj 76 252 == 3;
#X msg 185 222 color 26 26 22;
#X msg 91 221 color 23 23 22;
#X obj 193 106 loadbang;
#X msg 193 126 0;
#X obj 91 171 sel 0 1 2 3 -1;
#X obj 150 273 s piedUSBConnected;
#X msg 481 221 color 1 1 22;
#X obj 138 124 outlet;
#X connect 0 0 8 0;
#X connect 2 0 16 0;
#X connect 3 0 16 0;
#X connect 4 0 5 0;
#X connect 5 0 6 0;
#X connect 6 0 7 0;
#X connect 7 0 9 0;
#X connect 7 1 9 1;
#X connect 7 1 18 0;
#X connect 8 0 9 0;
#X connect 9 0 10 0;
#X connect 9 0 15 0;
#X connect 10 0 1 0;
#X connect 11 0 16 0;
#X connect 12 0 16 0;
#X connect 13 0 14 0;
#X connect 14 0 15 0;
#X connect 15 0 12 0;
#X connect 15 1 11 0;
#X connect 15 2 2 0;
#X connect 15 3 3 0;
#X connect 17 0 16 0;
#X restore 78 69 pd piedUSBConnected;
#N canvas 799 321 506 358 stopSwitch(ArretUrgence) 0;
#X obj 26 19 inlet;
#X msg 292 259 color 13 13 22;
#X msg 193 258 color 16 16 22;
#X obj 264 133 loadbang;
#X obj 104 12 r StopSwitch;
#X obj 223 316 s stopSwitch(ArretUrgence);
#X obj 171 71 outlet;
#X msg 26 171 0;
#X obj 99 126 spigot;
#X msg 57 170 1;
#X obj 26 328 outlet;
#X obj 26 206 f;
#X msg 99 259 color 23 23 22;
#X obj 26 87 sel 0 1;
#X obj 211 36 s StopSwitch;
#X obj 104 61 sel 1 0;
#X obj 211 15 inlet testStopSwitch;
#X obj 200 112 tgl 15 0 empty empty empty 17 7 0 10 -262144 -1 -1 0
1;
#X obj 3 65 tgl 15 0 empty empty empty 17 7 0 10 -262144 -1 -1 0 1
;
#X obj 26 50 change;
#X obj 104 33 t f f;
#X connect 0 0 8 1;
#X connect 0 0 19 0;
#X connect 1 0 5 0;
#X connect 2 0 5 0;
#X connect 3 0 12 0;
#X connect 4 0 20 0;
#X connect 7 0 11 0;
#X connect 8 0 9 0;
#X connect 9 0 11 0;
#X connect 9 0 2 0;
#X connect 11 0 10 0;
#X connect 12 0 5 0;
#X connect 13 0 7 0;
#X connect 13 0 12 0;
#X connect 13 1 1 0;
#X connect 15 0 7 0;
#X connect 15 0 1 0;
#X connect 15 1 8 0;
#X connect 16 0 14 0;
#X connect 19 0 13 0;
#X connect 20 0 15 0;
#X connect 20 1 6 0;
#X restore 78 348 pd stopSwitch(ArretUrgence);
#X obj 50 140 tgl 15 0 empty empty empty 17 7 0 10 -262144 -1 -1 0
1;
#N canvas 46 459 506 358 CurrentAvanceOK 0;
#X obj 52 67 inlet;
#X obj 52 323 outlet;
#X msg 259 250 color 13 13 22;
#X msg 358 249 color 16 16 22;
#X obj 89 137 t b f;
#X obj 52 137 * 2;
#X obj 52 176 +;
#X obj 67 216 sel 0 1 2 3;
#X obj 52 297 == 3;
#X msg 161 249 color 26 26 22;
#X msg 67 248 color 23 23 22;
#X obj 169 151 loadbang;
#X msg 169 171 0;
#X obj 101 89 max;
#X obj 108 68 t b f;
#X obj 101 24 r avance_courantX;
#X obj 108 47 r avance_courantY;
#X obj 109 299 s CurrentAvanceOK;
#X obj 102 173 outlet;
#X obj 267 68 init 0;
#X obj 101 113 currentOK 2500 5;
#X connect 0 0 5 0;
#X connect 2 0 17 0;
#X connect 3 0 17 0;
#X connect 4 0 6 0;
#X connect 4 1 6 1;
#X connect 4 1 18 0;
#X connect 5 0 6 0;
#X connect 6 0 7 0;
#X connect 6 0 8 0;
#X connect 7 0 10 0;
#X connect 7 1 9 0;
#X connect 7 2 2 0;
#X connect 7 3 3 0;
#X connect 8 0 1 0;
#X connect 9 0 17 0;
#X connect 10 0 17 0;
#X connect 11 0 12 0;
#X connect 12 0 7 0;
#X connect 13 0 20 0;
#X connect 14 0 13 0;
#X connect 14 1 13 1;
#X connect 15 0 13 0;
#X connect 16 0 14 0;
#X connect 19 0 20 0;
#X connect 20 0 4 0;
#X restore 78 237 pd CurrentAvanceOK;
#X obj 443 53 hsl 150 30 0 127 0 0 --null-- piedUSBConnected piedUSBConnected
2 15 0 10 -42246 -42246 -1 0 1;
#X obj 443 91 hsl 150 30 0 127 0 0 --null-- fruitAvanceConnected fruitAvanceConnected
2 15 0 10 -143491 -143491 -1 0 1;
#X obj 443 123 hsl 150 30 0 127 0 0 --null-- fruitDirectionConnected
fruitDirectionConnected 2 15 0 10 -143491 -143491 -1 0 1;
#X obj 443 164 hsl 150 30 0 127 0 0 --null-- sidesSecuOK sidesSecuOK
2 15 0 10 -143491 -143491 -1 0 1;
#X obj 443 242 hsl 150 30 0 127 0 0 --null-- CurrentDirectionOK CurrentDirectionOK
2 15 0 10 -143491 -143491 -1 0 1;
#X obj 443 274 hsl 150 30 0 127 0 0 --null-- CurrentAvanceOK CurrentAvanceOK
2 15 0 10 -143491 -143491 -1 0 1;
#X obj 442 319 hsl 150 30 0 127 0 0 --null-- stopSwitch(ArretUrgence)
stopSwitch(ArretUrgence) 2 15 0 10 -143491 -143491 -1 0 1;
#X obj 202 71 tgl 15 0 empty empty empty 17 7 0 10 -262144 -1 -1 1
1;
#X obj 224 98 tgl 15 0 empty empty empty 17 7 0 10 -262144 -1 -1 0
1;
#X obj 236 213 tgl 15 0 empty empty empty 17 7 0 10 -262144 -1 -1 0
1;
#X obj 211 238 tgl 15 0 empty empty empty 17 7 0 10 -262144 -1 -1 0
1;
#X obj 285 354 tgl 15 0 empty empty empty 17 7 0 10 -262144 -1 -1 0
1;
#X obj 51 319 tgl 15 0 empty empty empty 17 7 0 10 -262144 -1 -1 0
1;
#X obj 73 446 sel 0 1;
#X obj 72 472 bng 15 250 50 0 empty empty empty 17 7 0 10 -262144 -1
-1;
#X obj 105 473 bng 15 250 50 0 empty empty empty 17 7 0 10 -262144
-1 -1;
#X obj 78 374 change;
#X obj 237 327 tgl 15 0 empty empty testStopSwitch 17 7 0 10 -258113
-1 -1 0 1;
#X obj 105 519 s CYCLEplay;
#X msg 105 497 1;
#X obj 72 545 s CYCLEstop;
#X obj 78 400 spigot 1;
#X obj 148 398 tgl 15 0 empty empty empty 17 7 0 10 -262144 -1 -1 0
1;
#X obj 79 10 init 1;
#X obj 444 373 change;
#X obj 443 196 hsl 150 30 0 127 0 0 --null-- sidesDistanceOK sidesDistanceOK
2 15 0 10 -143491 -143491 -1 0 1;
#X obj 77 422 t f f;
#X obj 266 430 tgl 15 0 empty empty empty 17 7 0 10 -262144 -1 -1 0
1;
#X obj 248 481 && 1;
#X obj 266 453 t b f;
#X obj 215 455 == 0;
#X obj 250 507 tgl 15 0 empty empty empty 17 7 0 10 -262144 -1 -1 0
1;
#X obj 314 498 metro 1000;
#X msg 314 523 0;
#X obj 314 545 s Vitesse;
#X obj 226 54 print piedUSBConnected;
#X obj 251 90 print fruitAvanceConnected;
#X obj 242 267 print CurrentDirectionOK;
#X obj 188 287 print CurrentAvanceOK;
#X obj 266 377 change;
#X obj 265 399 print stopSwitch(ArretUrgence);
#X obj 243 245 change -1;
#X obj 189 265 change -1;
#X obj 50 277 tgl 15 0 empty empty empty 17 7 0 10 -262144 -1 -1 0
1;
#N canvas 146 507 506 358 CurrentLyreOK 0;
#X obj 52 67 inlet;
#X obj 52 323 outlet;
#X msg 259 250 color 13 13 22;
#X msg 358 249 color 16 16 22;
#X obj 89 137 t b f;
#X obj 52 137 * 2;
#X obj 52 176 +;
#X obj 67 216 sel 0 1 2 3;
#X obj 52 297 == 3;
#X msg 161 249 color 26 26 22;
#X msg 67 248 color 23 23 22;
#X obj 169 151 loadbang;
#X msg 169 171 0;
#X obj 101 89 max;
#X obj 108 68 t b f;
#X obj 109 299 s CurrentDirectionOK;
#X obj 118 169 outlet;
#X obj 277 78 init 0;
#X obj 101 24 r courantX;
#X obj 113 47 r courantY;
#X obj 100 110 currentOK 3000 2.5;
#X connect 0 0 5 0;
#X connect 2 0 15 0;
#X connect 3 0 15 0;
#X connect 4 0 6 0;
#X connect 4 1 6 1;
#X connect 4 1 16 0;
#X connect 5 0 6 0;
#X connect 6 0 7 0;
#X connect 6 0 8 0;
#X connect 7 0 10 0;
#X connect 7 1 9 0;
#X connect 7 2 2 0;
#X connect 7 3 3 0;
#X connect 8 0 1 0;
#X connect 9 0 15 0;
#X connect 10 0 15 0;
#X connect 11 0 12 0;
#X connect 12 0 7 0;
#X connect 13 0 20 0;
#X connect 14 0 13 0;
#X connect 14 1 13 1;
#X connect 17 0 20 0;
#X connect 18 0 13 0;
#X connect 19 0 14 0;
#X connect 20 0 4 0;
#X restore 78 216 pd CurrentLyreOK;
#X obj 50 160 s RegulYOn;
#X obj 120 161 s RegulXOn;
#X connect 0 0 2 0;
#X connect 1 0 4 0;
#X connect 1 1 14 0;
#X connect 1 1 42 0;
#X connect 2 0 1 0;
#X connect 2 1 13 0;
#X connect 3 0 22 0;
#X connect 3 1 17 0;
#X connect 4 0 51 0;
#X connect 4 0 52 0;
#X connect 5 0 3 0;
#X connect 5 1 16 0;
#X connect 5 1 48 0;
#X connect 13 0 41 0;
#X connect 17 0 45 0;
#X connect 18 0 3 0;
#X connect 19 0 20 0;
#X connect 19 1 21 0;
#X connect 20 0 26 0;
#X connect 21 0 25 0;
#X connect 22 0 27 0;
#X connect 23 0 3 1;
#X connect 25 0 24 0;
#X connect 27 0 32 0;
#X connect 28 0 27 1;
#X connect 32 0 19 0;
#X connect 32 1 36 0;
#X connect 33 0 35 0;
#X connect 34 0 37 0;
#X connect 35 0 34 0;
#X connect 35 1 34 1;
#X connect 36 0 34 0;
#X connect 37 0 38 0;
#X connect 38 0 39 0;
#X connect 39 0 40 0;
#X connect 45 0 46 0;
#X connect 47 0 43 0;
#X connect 48 0 44 0;
#X connect 50 0 5 0;
#X connect 50 1 15 0;
#X connect 50 1 47 0;
#X restore 218 285 pd States;
#X obj 38 15 hsl 150 30 0 127 0 0 --null-- piedUSBConnected piedUSBConnected
2 15 0 10 -42246 -42246 -1 0 1;
#X obj 38 53 hsl 150 30 0 127 0 0 --null-- fruitAvanceConnected fruitAvanceConnected
2 15 0 10 -143491 -143491 -1 0 1;
#X obj 38 85 hsl 150 30 0 127 0 0 --null-- fruitDirectionConnected
fruitDirectionConnected 2 15 0 10 -143491 -143491 -1 0 1;
#X obj 38 126 hsl 150 30 0 127 0 0 --null-- sidesSecuOK sidesSecuOK
2 15 0 10 -143491 -143491 -1 0 1;
#X obj 39 203 hsl 150 30 0 127 0 0 --null-- CurrentDirectionOK CurrentDirectionOK
2 15 0 10 -143491 -143491 -1 0 1;
#X obj 38 236 hsl 150 30 0 127 0 0 --null-- CurrentAvanceOK CurrentAvanceOK
2 15 0 10 -143491 -143491 -1 0 1;
#X obj 37 286 hsl 150 30 0 127 0 0 --null-- stopSwitch(ArretUrgence)
stopSwitch(ArretUrgence) 2 15 0 10 -143491 -143491 -1 0 1;
#X obj 254 249 tgl 30 0 StopSwitch empty testStopSwitch 17 7 0 10 -258113
-1 -1 0 1;
#X obj 245 55 loadbang;
#X obj 245 154 s CYCLE_cm_mn;
#X text 205 27 SET CYCLE: LENGTH(cm) TIME-AV(mn) TIME-AR(mn);
#X msg 311 58 1000 10 10;
#X obj 38 159 hsl 150 30 0 127 0 0 --null-- sidesDistanceOK sidesDistanceOK
2 15 0 10 -143491 -143491 -1 0 1;
#X text 218 183 Mesure pour 5/5/1 : avance=5.85mn recule=2.47mn;
#X msg 245 91 900 11 3;
#X msg 284 122 500 1 1;
#X obj 219 319 tgl 60 0 RegulXSTOP empty XSTOP 3 30 0 19 -258113 -1
-1 0 1;
#X obj 219 384 tgl 60 0 RegulYSTOP empty YSTOP 3 30 0 19 -258113 -1
-1 0 1;
#X connect 13 0 19 0;
#X connect 19 0 14 0;
#X connect 20 0 14 0;
#X restore 317 434 pd olds;
#X obj 258 257 bng 15 250 50 0 empty empty empty 17 7 0 10 -262144
-1 -1;
#X msg 209 263 0;
#X msg 310 282 1;
#N canvas 188 161 625 480 pof_start 1;
#X obj 458 15 declare -lib pof;
#X obj 458 38 poffonts impact Impact.ttf;
#X obj 119 306 poftexts impact 36;
#X obj 301 102 sel 0 1 2;
#X obj 456 79 == 1;
#X obj 301 75 t f f;
#X obj 456 101 t f f;
#X obj 456 143 tgl 15 0 empty empty empty 17 7 0 10 -262144 -1 -1 1
1;
#X obj 547 241 line;
#X obj 536 122 sel 0;
#X msg 482 144 set 0;
#X obj 301 53 hradio 15 1 0 3 empty empty empty 0 -8 0 10 -262144 -1
-1 1;
#X obj 456 123 metro 2000;
#X msg 455 209 \$1 2000;
#X obj 228 356 route down;
#X obj 228 378 spigot;
#X obj 301 22 inlet state;
#X obj 228 400 outlet start;
#X obj 136 25 tgl 15 0 empty empty empty 17 7 0 10 -262144 -1 -1 0
1;
#X obj 136 47 pofwin;
#X msg 200 47 cursor 0;
#X obj 200 14 loadbang;
#X msg 202 71 cursor 1;
#X msg 168 265 size 81 \, text initializing motors...;
#X obj 119 334 poftouch 700 350;
#X obj 341 432 print touch;
#X obj 482 381 unpack f f f;
#X obj 456 405 pofcolor 0 0 0 1;
#X obj 455 427 pofimage limen.jpg;
#X obj 119 163 t a a;
#X msg 547 307 \$1 \$1 \$1;
#X msg 272 246 size 256 \, text;
#X msg 326 155 0 0 0;
#X msg 449 275 size 191 \, text;
#X msg 536 149 0 1000;
#X obj 119 134 pofhead;
#X obj 457 187 + 0.15;
#X obj 456 165 * 0.85;
#X connect 2 0 24 0;
#X connect 3 0 32 0;
#X connect 3 0 23 0;
#X connect 3 1 31 0;
#X connect 3 2 33 0;
#X connect 4 0 6 0;
#X connect 4 0 15 1;
#X connect 5 0 3 0;
#X connect 5 1 4 0;
#X connect 6 0 12 0;
#X connect 6 1 9 0;
#X connect 7 0 37 0;
#X connect 8 0 30 0;
#X connect 9 0 34 0;
#X connect 9 0 10 0;
#X connect 10 0 7 0;
#X connect 11 0 5 0;
#X connect 12 0 7 0;
#X connect 13 0 8 0;
#X connect 14 0 15 0;
#X connect 15 0 17 0;
#X connect 16 0 11 0;
#X connect 18 0 19 0;
#X connect 20 0 19 0;
#X connect 21 0 20 0;
#X connect 22 0 19 0;
#X connect 23 0 2 0;
#X connect 24 1 14 0;
#X connect 26 0 27 1;
#X connect 26 1 27 2;
#X connect 26 2 27 3;
#X connect 27 0 28 0;
#X connect 29 0 2 0;
#X connect 29 1 27 0;
#X connect 30 0 26 0;
#X connect 31 0 2 0;
#X connect 32 0 26 0;
#X connect 33 0 2 0;
#X connect 34 0 8 0;
#X connect 35 0 29 0;
#X connect 36 0 13 0;
#X connect 37 0 36 0;
#X restore 310 311 pd pof_start;
#X obj 370 205 r seq-conduite-snd;
#X obj 370 227 route END stop nb;
#X msg 372 275 2;
#X obj 356 183 r seq-conduite-line;
#X msg 164 322 1;
#X obj 468 79 hsl 128 15 0 100 0 0 empty empty empty -2 -8 0 10 -262144
-1 -1 0 1;
#X obj 465 121 s CONTROL;
#X obj 9 232 LAMPE 1 1 51;
#X msg 465 99 LAMPE1 \$1 0.1;
#X obj 9 267 LAMPE 2 1 52;
#X obj 9 302 LAMPE 3 1 53;
#X obj 9 337 LAMPE 4 2 51;
#X obj 9 372 LAMPE 5 2 52;
#X obj 9 407 LAMPE 6 2 53;
#X obj 168 4 fruit/fruit 1 Lampe1 10 LampesFW;
#X obj 168 53 fruit/fruit 1 Lampe2 11 LampesFW;
#X obj 462 11 loadbang;
#X msg 462 33 \; pd dsp 1;
#X obj 529 251 hsl 128 15 -360 360 0 0 empty empty empty -2 -8 0 10
-262144 -1 -1 0 1;
#X obj 526 293 s CONTROL;
#X msg 526 271 POS1 \$1 120;
#X obj 458 316 metro 50;
#X obj 458 338 i;
#X obj 458 360 + 1;
#X obj 458 382 mod 6;
#X obj 458 404 + 1;
#X msg 458 431 1 \$1 \, 2 \$1 \, 3 \$1 \, 4 \$1 \, 5 \$1 \, 6 \$1;
#X obj 559 523 s CONTROL;
#X obj 458 453 unpack f f;
#X obj 458 475 t f f;
#X obj 490 496 ==;
#X obj 490 518 * 100;
#X obj 456 544 pack f f;
#X msg 559 501 LAMPE\$1 \$2;
#X obj 472 271 tgl 15 0 empty empty empty 17 7 0 10 -262144 -1 -1 0
1;
#X obj 10 108 MOTEUR 1;
#X obj 227 108 MOTEUR 3;
#X obj 119 108 MOTEUR 2;
#X connect 2 0 9 0;
#X connect 2 0 3 0;
#X connect 3 0 10 0;
#X connect 6 0 5 0;
#X connect 8 0 3 0;
#X connect 9 0 11 0;
#X connect 10 0 11 0;
#X connect 11 0 16 0;
#X connect 12 0 13 0;
#X connect 13 0 10 0;
#X connect 13 1 10 0;
#X connect 13 2 14 0;
#X connect 14 0 11 0;
#X connect 15 0 13 0;
#X connect 16 0 6 0;
#X connect 17 0 20 0;
#X connect 20 0 18 0;
#X connect 28 0 29 0;
#X connect 30 0 32 0;
#X connect 32 0 31 0;
#X connect 33 0 34 0;
#X connect 34 0 35 0;
#X connect 35 0 36 0;
#X connect 36 0 34 1;
#X connect 36 0 37 0;
#X connect 37 0 38 0;
#X connect 38 0 40 0;
#X connect 40 0 41 0;
#X connect 40 1 42 1;
#X connect 41 0 44 0;
#X connect 41 1 42 0;
#X connect 42 0 43 0;
#X connect 43 0 44 1;
#X connect 44 0 45 0;
#X connect 45 0 39 0;
#X connect 46 0 33 0;
#X coords 0 0 0.00203252 0.00161812 280 45 0;
