#N canvas 598 127 718 583 10;
#X declare -stdpath Fraise;
#X declare -lib pof;
#X obj 10 8 declare -stdpath Fraise;
#X obj 10 31 pied/pied 0 12346;
#X obj 209 264 loadbang;
#N canvas 0 228 562 296 SET_ZEROS 0;
#X obj 57 15 r MOT1-status-ok;
#X obj 70 36 r MOT2-status-ok;
#X obj 83 59 r MOT3-status-ok;
#X obj 57 152 &&;
#X obj 70 128 t b f;
#X obj 70 107 &&;
#X obj 83 83 t b f;
#X obj 230 96 t b b;
#X obj 57 174 sel 1;
#X obj 57 203 spigot;
#X msg 230 121 1;
#X obj 57 246 outlet;
#X obj 230 26 inlet;
#X obj 257 204 s MOT1-RESET_ZERO;
#X obj 276 180 s MOT2-RESET_ZERO;
#X obj 288 156 s MOT3-RESET_ZERO;
#X obj 257 121 b;
#X msg 114 223 0;
#X obj 57 225 t b b;
#X obj 321 35 bng 15 250 50 0 empty empty empty 17 7 0 10 -262144 -1
-1;
#X obj 230 48 del 1000;
#X connect 0 0 3 0;
#X connect 1 0 5 0;
#X connect 2 0 6 0;
#X connect 3 0 8 0;
#X connect 4 0 3 0;
#X connect 4 1 3 1;
#X connect 5 0 4 0;
#X connect 6 0 5 0;
#X connect 6 1 5 1;
#X connect 7 0 10 0;
#X connect 7 1 16 0;
#X connect 8 0 9 0;
#X connect 9 0 18 0;
#X connect 10 0 9 1;
#X connect 12 0 20 0;
#X connect 16 0 13 0;
#X connect 16 0 14 0;
#X connect 16 0 15 0;
#X connect 17 0 9 1;
#X connect 18 0 11 0;
#X connect 18 1 17 0;
#X connect 19 0 16 0;
#X connect 20 0 7 0;
#X restore 280 294 pd SET_ZEROS;
#N canvas 567 297 837 566 NETWORK/SEQUENCE 1;
#X obj 147 260 s reSend;
#X obj 121 96 f;
#X obj 150 96 r reSend;
#X obj 63 401 s piedOn;
#X obj 121 11 PdServeur NET 424242;
#X obj 63 330 r NET-fromclients;
#X obj 63 352 route CLIENT;
#X obj 98 503 s NET-toclients;
#X obj 121 138 s NET-toclients;
#X obj 98 481 list prepend CLIENT Echo;
#N canvas 5 74 450 300 test_connected 0;
#X obj 130 50 inlet;
#X obj 130 79 route test;
#X obj 130 99 t b b;
#X obj 130 121 del 1000;
#X msg 130 143 0;
#X msg 169 144 1;
#X obj 130 169 change;
#X obj 130 194 tgl 15 0 \$0-CONNECTED empty CONNECTED 17 7 0 10 -262144
-1 -1 1 1;
#X obj 109 218 outlet;
#X connect 0 0 1 0;
#X connect 1 0 2 0;
#X connect 2 0 3 0;
#X connect 2 1 5 0;
#X connect 3 0 4 0;
#X connect 4 0 6 0;
#X connect 5 0 6 0;
#X connect 6 0 7 0;
#X connect 6 0 8 0;
#X restore 79 525 pd test_connected;
#X obj 79 546 tgl 15 0 empty empty empty 17 7 0 10 -262144 -1 -1 1
1;
#X obj 120 169 r NET-nbclients;
#X obj 120 194 sel 0;
#X obj 147 218 b;
#X obj 147 239 del 200;
#X obj 278 42 r toClient;
#X obj 278 61 list prepend CLIENT;
#X obj 278 81 s NET-toclients;
#X obj 131 453 ggee/shell;
#N canvas 11 74 591 317 test-rw 0;
#X msg 90 127 mount | grep /dev/mmcblk0p2 | cut -d' ' -f 6 | cut -c
2-3;
#X obj 90 181 route ro rw;
#X msg 90 202 ro;
#X msg 127 201 rw;
#X obj 90 227 outlet;
#X obj 90 98 metro 2000;
#X obj 90 54 loadbang;
#X obj 90 76 tgl 15 0 empty empty empty 17 7 0 10 -262144 -1 -1 0 1
;
#X obj 90 154 ggee/shell;
#X connect 0 0 8 0;
#X connect 1 0 2 0;
#X connect 1 1 3 0;
#X connect 2 0 4 0;
#X connect 3 0 4 0;
#X connect 5 0 0 0;
#X connect 7 0 5 0;
#X connect 8 0 1 0;
#X restore 483 206 pd test-rw;
#X obj 483 229 list prepend rorw;
#X obj 307 464 list trim;
#X obj 307 492 s CONTROL;
#X obj 467 320 s toClient;
#X obj 480 128 r seq-conduite-line;
#X obj 468 45 r toSeq;
#X obj 468 68 s seq-conduite-rcv;
#X obj 467 104 r seq-conduite-snd;
#X obj 467 174 list prepend seq;
#X obj 480 150 list prepend line;
#X obj 252 421 s toSeq;
#X obj 307 433 r seq-conduite-line;
#X obj 502 256 r MONITOR;
#X obj 502 278 list prepend monitor;
#X obj 648 256 r seq-conduite-dump;
#X msg 583 33 dump seq-conduite-dump;
#X obj 231 259 r NET-nbclients;
#X obj 231 281 > 0;
#N canvas 628 147 450 300 fruits_present 0;
#X obj 48 64 route present;
#X obj 48 44 fruit/receive Mot1;
#X obj 165 64 route present;
#X obj 283 63 route present;
#X obj 48 174 &&;
#X obj 59 151 t b f;
#X obj 165 116 &&;
#X obj 176 93 t b f;
#X obj 285 202 &&;
#X obj 296 179 t b f;
#X obj 296 156 route present;
#X obj 296 136 fruit/receive Lampes;
#X obj 165 44 fruit/receive Mot2;
#X obj 283 43 fruit/receive Mot3;
#X obj 48 196 change;
#X obj 48 218 outlet;
#X connect 0 0 4 0;
#X connect 1 0 0 0;
#X connect 2 0 6 0;
#X connect 3 0 7 0;
#X connect 4 0 14 0;
#X connect 5 0 4 0;
#X connect 5 1 4 1;
#X connect 6 0 5 0;
#X connect 7 0 6 0;
#X connect 7 1 6 1;
#X connect 9 0 8 0;
#X connect 9 1 8 1;
#X connect 10 0 9 0;
#X connect 11 0 10 0;
#X connect 12 0 2 0;
#X connect 13 0 3 0;
#X connect 14 0 15 0;
#X restore 121 56 pd fruits_present;
#X obj 231 303 change;
#X obj 231 325 sel 1 0;
#X obj 121 76 tgl 15 0 empty empty empty 17 7 0 10 -262144 -1 -1 1
1;
#X obj 121 116 list prepend CLIENT fruitsOK;
#X obj 648 278 list prepend seq;
#X obj 479 470 s MOT1-RESET_ZERO;
#X obj 494 497 s MOT2-RESET_ZERO;
#X obj 512 528 s MOT3-RESET_ZERO;
#X obj 470 411 sel 1 2 3;
#X obj 63 377 route piedOn Echo rw ro seq RESET STOPMOTORS;
#X obj 593 440 s STOPMOTORS;
#X msg 131 410 /home/pi/bin/rw;
#X msg 143 431 /home/pi/bin/ro;
#X connect 1 0 43 0;
#X connect 2 0 1 0;
#X connect 5 0 6 0;
#X connect 6 0 49 0;
#X connect 9 0 7 0;
#X connect 10 0 11 0;
#X connect 12 0 13 0;
#X connect 13 1 14 0;
#X connect 14 0 15 0;
#X connect 15 0 0 0;
#X connect 16 0 17 0;
#X connect 17 0 18 0;
#X connect 20 0 21 0;
#X connect 21 0 24 0;
#X connect 22 0 23 0;
#X connect 25 0 30 0;
#X connect 26 0 27 0;
#X connect 28 0 29 0;
#X connect 29 0 24 0;
#X connect 30 0 29 0;
#X connect 32 0 22 0;
#X connect 33 0 34 0;
#X connect 34 0 24 0;
#X connect 35 0 44 0;
#X connect 36 0 27 0;
#X connect 37 0 38 0;
#X connect 38 0 40 0;
#X connect 39 0 42 0;
#X connect 40 0 41 0;
#X connect 41 0 51 0;
#X connect 41 1 52 0;
#X connect 42 0 1 0;
#X connect 43 0 8 0;
#X connect 44 0 24 0;
#X connect 48 0 45 0;
#X connect 48 1 46 0;
#X connect 48 2 47 0;
#X connect 49 0 3 0;
#X connect 49 1 10 0;
#X connect 49 1 9 0;
#X connect 49 2 51 0;
#X connect 49 3 52 0;
#X connect 49 4 31 0;
#X connect 49 5 48 0;
#X connect 49 6 50 0;
#X connect 49 7 22 0;
#X connect 51 0 19 0;
#X connect 52 0 19 0;
#X restore 164 465 pd NETWORK/SEQUENCE;
#X obj 164 405 seq/main conduite;
#X msg 164 381 load \$1;
#X obj 258 294 bng 15 250 50 0 empty empty empty 17 7 0 10 -262144
-1 -1;
#X msg 209 300 0;
#X msg 310 319 1;
#N canvas 186 151 776 539 pof_start 0;
#X obj 458 15 declare -lib pof;
#X obj 458 38 poffonts impact Impact.ttf;
#X obj 119 306 poftexts impact 36;
#X obj 301 102 sel 0 1 2;
#X obj 456 79 == 1;
#X obj 301 75 t f f;
#X obj 456 101 t f f;
#X obj 456 143 tgl 15 0 empty empty empty 17 7 0 10 -262144 -1 -1 0
1;
#X obj 547 241 line;
#X obj 536 122 sel 0;
#X msg 482 144 set 0;
#X obj 301 53 hradio 15 1 0 3 empty empty empty 0 -8 0 10 -262144 -1
-1 2;
#X obj 456 123 metro 2000;
#X msg 455 209 \$1 2000;
#X obj 228 356 route down;
#X obj 228 378 spigot;
#X obj 301 22 inlet state;
#X obj 228 400 outlet start;
#X obj 137 25 tgl 15 0 empty empty empty 17 7 0 10 -262144 -1 -1 0
1;
#X obj 136 47 pofwin;
#X msg 200 47 cursor 0;
#X obj 200 14 loadbang;
#X msg 202 71 cursor 1;
#X msg 168 265 size 81 \, text initializing motors...;
#X obj 119 334 poftouch 700 350;
#X obj 341 432 print touch;
#X obj 482 381 unpack f f f;
#X obj 455 427 pofimage limen.jpg;
#X msg 547 307 \$1 \$1 \$1;
#X msg 272 246 size 256 \, text;
#X msg 326 155 0 0 0;
#X msg 449 275 size 191 \, text;
#X obj 457 187 + 0.15;
#X obj 456 165 * 0.85;
#X msg 536 149 0.01 1000;
#X obj 119 135 pofhead;
#X obj 456 405 pofcolor 0 0 0 1;
#X obj 612 432 pofrect 3000 3000;
#X obj 612 411 pofcolor 0 0 0 1;
#X obj 119 163 t a a a;
#X connect 2 0 24 0;
#X connect 3 0 30 0;
#X connect 3 0 23 0;
#X connect 3 1 29 0;
#X connect 3 2 31 0;
#X connect 4 0 6 0;
#X connect 4 0 15 1;
#X connect 5 0 3 0;
#X connect 5 1 4 0;
#X connect 6 0 12 0;
#X connect 6 1 9 0;
#X connect 7 0 33 0;
#X connect 8 0 28 0;
#X connect 9 0 34 0;
#X connect 9 0 10 0;
#X connect 10 0 7 0;
#X connect 11 0 5 0;
#X connect 12 0 7 0;
#X connect 13 0 8 0;
#X connect 14 0 15 0;
#X connect 15 0 17 0;
#X connect 16 0 11 0;
#X connect 18 0 19 0;
#X connect 20 0 19 0;
#X connect 21 0 20 0;
#X connect 22 0 19 0;
#X connect 23 0 2 0;
#X connect 24 1 14 0;
#X connect 26 0 36 1;
#X connect 26 1 36 2;
#X connect 26 2 36 3;
#X connect 28 0 26 0;
#X connect 29 0 2 0;
#X connect 30 0 26 0;
#X connect 31 0 2 0;
#X connect 32 0 13 0;
#X connect 33 0 32 0;
#X connect 34 0 8 0;
#X connect 35 0 39 0;
#X connect 36 0 27 0;
#X connect 38 0 37 0;
#X connect 39 0 2 0;
#X connect 39 1 36 0;
#X connect 39 2 38 0;
#X restore 310 348 pd pof_start;
#X obj 366 212 r seq-conduite-snd;
#X obj 366 234 route END stop nb;
#X msg 372 312 2;
#X obj 352 190 r seq-conduite-line;
#X msg 164 359 1;
#X obj 468 79 hsl 128 15 0 100 0 0 empty empty empty -2 -8 0 10 -262144
-1 -1 0 1;
#X obj 465 121 s CONTROL;
#X obj 9 275 LAMPE 1 1 51;
#X msg 465 99 LAMPE1 \$1 0.1;
#X obj 9 310 LAMPE 2 1 52;
#X obj 9 345 LAMPE 3 1 53;
#X obj 9 380 LAMPE 4 2 51;
#X obj 9 415 LAMPE 5 2 52;
#X obj 9 450 LAMPE 6 2 53;
#X obj 168 4 fruit/fruit 1 Lampe1 10 LampesFW;
#X obj 168 53 fruit/fruit 1 Lampe2 11 LampesFW;
#X obj 462 11 loadbang;
#X msg 462 33 \; pd dsp 1;
#X obj 530 191 hsl 128 15 -360 360 0 0 empty empty empty -2 -8 0 10
-262144 -1 -1 0 1;
#X obj 523 395 s CONTROL;
#X obj 458 316 metro 50;
#X obj 458 338 i;
#X obj 458 360 + 1;
#X obj 458 382 mod 6;
#X obj 458 404 + 1;
#X msg 458 431 1 \$1 \, 2 \$1 \, 3 \$1 \, 4 \$1 \, 5 \$1 \, 6 \$1;
#X obj 559 523 s CONTROL;
#X obj 458 453 unpack f f;
#X obj 458 475 t f f;
#X obj 490 496 ==;
#X obj 490 518 * 100;
#X obj 456 544 pack f f;
#X msg 559 501 LAMPE\$1 \$2;
#X obj 472 271 tgl 15 0 empty empty empty 17 7 0 10 -262144 -1 -1 0
1;
#X obj 119 108 MOTEUR 2;
#X msg 533 33 \; pd dsp 0;
#X obj 227 108 MOTEUR 3;
#X obj 8 109 MOTEUR 1;
#X obj 526 249 pack f 120;
#X msg 526 271 POS1 \$1 \$2;
#X floatatom 607 248 5 0 0 0 - - -, f 5;
#X msg 607 226 30;
#X msg 639 225 60;
#X msg 669 225 120;
#X msg 607 299 POS2 \$1 \$2;
#X msg 612 348 POS3 \$1 \$2;
#X msg 572 225 10;
#X msg 666 251 360;
#X msg 664 274 600;
#X obj 613 370 spigot;
#X obj 608 324 spigot;
#X obj 662 324 tgl 15 0 empty empty empty 17 7 0 10 -262144 -1 -1 0
1;
#X obj 665 371 tgl 15 0 empty empty empty 17 7 0 10 -262144 -1 -1 0
1;
#X obj 535 311 spigot;
#X obj 587 312 tgl 15 0 empty empty empty 17 7 0 10 -262144 -1 -1 0
1;
#X connect 2 0 3 0;
#X connect 2 0 8 0;
#X connect 3 0 9 0;
#X connect 6 0 5 0;
#X connect 7 0 3 0;
#X connect 8 0 10 0;
#X connect 9 0 10 0;
#X connect 10 0 15 0;
#X connect 11 0 12 0;
#X connect 12 0 9 0;
#X connect 12 1 9 0;
#X connect 12 2 13 0;
#X connect 13 0 10 0;
#X connect 14 0 12 0;
#X connect 15 0 6 0;
#X connect 16 0 19 0;
#X connect 19 0 17 0;
#X connect 29 0 49 0;
#X connect 31 0 32 0;
#X connect 32 0 33 0;
#X connect 33 0 34 0;
#X connect 34 0 32 1;
#X connect 34 0 35 0;
#X connect 35 0 36 0;
#X connect 36 0 38 0;
#X connect 38 0 39 0;
#X connect 38 1 40 1;
#X connect 39 0 42 0;
#X connect 39 1 40 0;
#X connect 40 0 41 0;
#X connect 41 0 42 1;
#X connect 42 0 43 0;
#X connect 43 0 37 0;
#X connect 44 0 31 0;
#X connect 49 0 50 0;
#X connect 49 0 56 0;
#X connect 49 0 55 0;
#X connect 50 0 64 0;
#X connect 51 0 49 1;
#X connect 52 0 51 0;
#X connect 53 0 51 0;
#X connect 54 0 51 0;
#X connect 55 0 61 0;
#X connect 56 0 60 0;
#X connect 57 0 51 0;
#X connect 58 0 51 0;
#X connect 59 0 51 0;
#X connect 60 0 30 0;
#X connect 61 0 30 0;
#X connect 62 0 61 1;
#X connect 63 0 60 1;
#X connect 64 0 30 0;
#X connect 65 0 64 1;
#X coords 0 0 0.00203252 0.00161812 280 45 0;
