#N canvas 604 216 574 453 10;
#X obj 88 221 pack f f;
#X obj 88 179 t a b;
#X obj 88 244 unpack f f;
#X obj 88 293 pack f f;
#X obj 88 315 line;
#X obj 155 271 * 1000;
#X obj 88 136 r CONTROL;
#X obj 88 335 s LAMPE\$1-val;
#X obj 14 28 hsl 128 15 0 100 0 0 LAMPE\$1-val LAMPE\$1-val empty 5
8 0 10 -257985 -1 -1 0 1;
#X obj 313 94 r LAMPE\$1-val;
#X obj 313 116 / 100;
#X obj 88 271 clip 0 100;
#X obj 105 12 nbx 5 14 0 100 0 0 LAMPE\$1-val LAMPE\$1-val empty 0
-8 0 10 -262144 -1 -1 0 256;
#X msg 201 291 stop;
#X obj 88 158 route LAMPE\$1 stop;
#X obj 286 301 s MONITOR;
#X obj 286 279 list prepend LAMPE\$1;
#X obj 286 254 f;
#X obj 286 73 r reSend;
#X obj 313 137 clip 0 1;
#X obj 313 157 pow 3;
#X msg 120 199 0;
#X floatatom 423 147 5 0 1023 0 - - -, f 5;
#X msg 426 117 1;
#X obj 313 200 pack f \$3;
#X msg 313 223 c \$2 i \$1;
#X obj 313 245 fruit/send Lampe\$2;
#X obj 313 178 * 1023;
#X connect 0 0 2 0;
#X connect 1 0 0 0;
#X connect 1 1 21 0;
#X connect 2 0 11 0;
#X connect 2 1 5 0;
#X connect 3 0 4 0;
#X connect 4 0 7 0;
#X connect 5 0 3 1;
#X connect 6 0 14 0;
#X connect 9 0 10 0;
#X connect 9 0 17 0;
#X connect 10 0 19 0;
#X connect 11 0 3 0;
#X connect 13 0 4 0;
#X connect 14 0 1 0;
#X connect 14 1 13 0;
#X connect 16 0 15 0;
#X connect 17 0 16 0;
#X connect 18 0 17 0;
#X connect 19 0 20 0;
#X connect 20 0 27 0;
#X connect 21 0 0 1;
#X connect 22 0 24 0;
#X connect 23 0 24 0;
#X connect 24 0 25 0;
#X connect 25 0 26 0;
#X connect 27 0 24 0;
#X coords 0 -1 1 1 150 34 1 10 10;
