#N canvas 599 263 267 201 10;
#X obj 12 29 cnv 15 100 15 empty MOT\$1-connected-can connected 2 10
1 10 -241291 -1 0;
#X obj 12 75 nbx 5 14 -360 360 0 0 MOT\$1-position MOT\$1-position
position 0 -5 0 10 -262144 -1 -1 -360 256;
#X obj 12 47 cnv 15 100 15 empty MOT\$1-status-can status:_ok 2 10
1 10 -24198 -1 0;
#X obj 97 47 bng 15 250 50 0 empty empty empty 17 7 0 10 -262144 -1
-1;
#X msg 97 107 vis 0 \, vis 1;
#N canvas 144 206 1024 503 MOT\$1-guts 1;
#X obj 4 18 fruit/fruit 1 Mot\$1 \$1 MoteurFW;
#X obj 42 195 fruit/receive Mot\$1;
#X obj 42 239 sel 0 1;
#X msg 42 261 label not_connected \, color 10 10 21;
#X msg 61 281 label connected \, color 15 15 22;
#X obj 297 234 analog/parse;
#X obj 297 256 route 0;
#X obj 227 17 dcmotor/motor Mot\$1 120 Mot;
#X obj 42 302 s MOT\$1-connected-can;
#X obj 20 163 loadbang;
#X msg 23 683 dest \$1;
#X msg 314 421 homed \$1;
#X obj 314 399 tgl 15 0 empty empty empty 17 7 0 10 -262144 -1 -1 1
1;
#X floatatom 52 664 5 0 0 0 - - -, f 5;
#X obj 23 619 -;
#X obj 54 619 r MOT\$1-offset;
#X obj 282 465 f;
#X obj 282 509 s MOT\$1-offset;
#X msg 314 375 1;
#X obj 282 350 t b b;
#X text 438 204 au montage: régler potard pour trouver 0.5 au centre
;
#X obj 693 567 loadbang;
#X msg 693 589 1;
#X obj 693 614 tgl 15 0 empty empty empty 17 7 0 10 -262144 -1 -1 1
1;
#X msg 693 660 W 0;
#X obj 693 637 metro 500;
#X obj 594 684 fruit/send2 Mot\$1;
#X text 570 589 watchdog:;
#X obj 282 329 r MOT\$1-SETZERO;
#X obj 42 217 route present MC;
#X obj 88 333 unpack f f f f;
#X floatatom 88 355 8 0 0 0 pos - -, f 8;
#X floatatom 115 378 8 0 0 0 ramp_pos - -, f 8;
#X floatatom 142 399 8 0 0 0 pwm - -, f 8;
#X obj 169 358 tgl 15 0 empty empty homed 17 7 0 10 -262144 -1 -1 1
1;
#X obj 142 419 abs;
#X text 436 226 procédure reset:;
#X text 544 227 SETZERO;
#X obj 188 604 s MOT\$1-stopped;
#X text 544 239 wait stopped;
#X text 545 251 goto 0°;
#X text 545 263 wait stopped;
#X text 546 288 SETZERO;
#X text 546 275 goto -330°;
#X obj 23 571 spigot;
#X obj 62 550 r MOT\$1-status-ok;
#N canvas 671 79 565 689 RESET_ZERO 0;
#X msg 90 96 0;
#X obj 52 482 r MOT\$1-stopped;
#X msg 71 151 c 120 c 4 i 0;
#X obj 52 217 del 1000;
#X msg 123 76 stop;
#X obj 71 174 fruit/send Mot\$1;
#X obj 294 251 s MOT\$1-status-ok;
#X obj 52 239 t b b;
#X obj 79 262 s MOT\$1-SETZERO;
#X obj 123 97 s \$0-stop-reset;
#X obj 60 196 r \$0-stop-reset;
#X obj 151 481 r \$0-stop-reset;
#X obj 52 503 spigot;
#X msg 151 503 0;
#X obj 66 286 r \$0-stop-reset;
#X obj 52 313 del 100;
#X obj 79 377 s \$0-position;
#X msg 79 357 0;
#X obj 52 335 t b b;
#X obj 60 401 r \$0-stop-reset;
#X obj 52 422 del 2000;
#X msg 52 444 1;
#X obj 52 546 t b b;
#X obj 52 525 sel 1;
#X obj 278 497 r MOT\$1-stopped;
#X obj 393 498 r \$0-stop-reset;
#X obj 278 518 spigot;
#X msg 393 520 0;
#X obj 305 392 s \$0-position;
#X obj 278 350 t b b;
#X obj 286 416 r \$0-stop-reset;
#X obj 278 437 del 2000;
#X msg 278 459 1;
#X obj 278 561 t b b;
#X obj 278 540 sel 1;
#X msg 305 372 -330;
#X obj 278 637 t b b;
#X obj 310 661 s MOT\$1-SETZERO;
#X obj 90 119 s MOT\$1-homed;
#X obj 294 161 r MOT\$1-homed;
#X obj 278 711 s MOT\$1-homed;
#X msg 278 688 1;
#X obj 52 27 inlet;
#X obj 229 567 bng 15 250 50 0 empty empty empty 17 7 0 10 -262144
-1 -1;
#X obj 109 25 bng 15 250 50 0 empty empty empty 17 7 0 10 -262144 -1
-1;
#X obj 416 120 r MOT\$1-pot;
#X obj 416 142 abs;
#X obj 416 164 < 370;
#X obj 308 188 t b f;
#X obj 294 219 && 1;
#X obj 164 713 s \$0-position;
#X msg 164 693 0;
#X obj 164 672 del 100;
#X obj 134 646 r \$0-stop-reset;
#X obj 255 244 tgl 15 0 empty empty empty 17 7 0 10 -262144 -1 -1 1
1;
#X obj 330 24 r MOT\$1-pot;
#X obj 330 83 abs;
#X obj 414 24 r MOT\$1-realPos;
#X obj 330 60 -;
#X obj 364 61 t b f;
#X floatatom 369 84 5 0 0 0 - - -, f 5;
#X obj 330 105 < 30;
#X obj 416 188 t b f;
#X obj 402 219 && 1;
#X obj 52 49 t b b b b b;
#X obj 168 74 s MOT\$1-acceleration;
#X msg 168 53 100;
#X obj 291 584 r \$0-stop-reset;
#X obj 278 607 del 2000;
#X obj 166 21 r STOPMOTORS;
#X connect 0 0 38 0;
#X connect 1 0 12 0;
#X connect 2 0 5 0;
#X connect 3 0 7 0;
#X connect 4 0 9 0;
#X connect 7 0 15 0;
#X connect 7 1 8 0;
#X connect 10 0 3 0;
#X connect 11 0 13 0;
#X connect 12 0 23 0;
#X connect 13 0 12 1;
#X connect 14 0 15 0;
#X connect 15 0 18 0;
#X connect 17 0 16 0;
#X connect 18 0 20 0;
#X connect 18 1 17 0;
#X connect 19 0 20 0;
#X connect 20 0 21 0;
#X connect 21 0 12 1;
#X connect 22 0 29 0;
#X connect 22 1 13 0;
#X connect 23 0 22 0;
#X connect 24 0 26 0;
#X connect 25 0 27 0;
#X connect 26 0 34 0;
#X connect 27 0 26 1;
#X connect 29 0 31 0;
#X connect 29 1 35 0;
#X connect 30 0 31 0;
#X connect 31 0 32 0;
#X connect 32 0 26 1;
#X connect 33 0 68 0;
#X connect 33 1 27 0;
#X connect 34 0 33 0;
#X connect 35 0 28 0;
#X connect 36 0 41 0;
#X connect 36 0 52 0;
#X connect 36 1 37 0;
#X connect 39 0 49 0;
#X connect 41 0 40 0;
#X connect 42 0 64 0;
#X connect 43 0 36 0;
#X connect 44 0 64 0;
#X connect 45 0 46 0;
#X connect 46 0 47 0;
#X connect 47 0 62 0;
#X connect 48 0 49 0;
#X connect 48 1 49 1;
#X connect 49 0 6 0;
#X connect 49 0 54 0;
#X connect 51 0 50 0;
#X connect 52 0 51 0;
#X connect 53 0 52 0;
#X connect 55 0 58 0;
#X connect 56 0 61 0;
#X connect 56 0 60 0;
#X connect 57 0 59 0;
#X connect 58 0 56 0;
#X connect 59 0 58 0;
#X connect 59 1 58 1;
#X connect 61 0 63 0;
#X connect 62 0 63 0;
#X connect 62 1 63 1;
#X connect 63 0 48 0;
#X connect 64 0 3 0;
#X connect 64 1 2 0;
#X connect 64 2 0 0;
#X connect 64 3 4 0;
#X connect 64 4 66 0;
#X connect 66 0 65 0;
#X connect 67 0 68 0;
#X connect 68 0 36 0;
#X connect 69 0 4 0;
#X restore 634 252 pd RESET_ZERO;
#X obj 23 530 r MOT\$1-position;
#X obj 23 706 s Mot\$1-Mot-ramp-params;
#X obj 314 445 s Mot\$1-Mot-params;
#X obj 36 594 r \$0-position;
#X obj 316 633 sel 0 1;
#X obj 316 609 r MOT\$1-status-ok;
#X obj 316 696 s MOT\$1-status-can;
#X obj 293 584 loadbang;
#X msg 316 655 label status:_not_ok \, color 10 10 21;
#X msg 335 675 label status:_ok \, color 16 15 22;
#X obj 634 229 r MOT\$1-RESET_ZERO;
#X obj 228 568 tgl 15 0 empty empty empty 17 7 0 10 -262144 -1 -1 1
1;
#X obj 511 392 pack f f;
#X obj 511 350 t a b;
#X msg 543 370 0;
#X obj 511 415 unpack f f;
#X obj 511 464 pack f f;
#X obj 511 486 line;
#X obj 613 443 * 1000;
#X obj 511 506 s MOT\$1-position;
#X obj 511 307 r CONTROL;
#X obj 511 442 clip -360 360;
#X msg 588 394 stop;
#X obj 702 279 r MOT\$1-position;
#X obj 702 324 list prepend POS\$1;
#X obj 702 346 s MONITOR;
#X obj 702 301 f;
#X obj 733 301 r reSend;
#X floatatom 393 276 5 0 0 0 - - -, f 5;
#X obj 131 139 print;
#X msg 727 660 SAVE;
#X msg 480 572 c 120 c 4 i \$1;
#X floatatom 427 568 5 0 0 0 - - -, f 5;
#X obj 417 536 hsl 128 15 0 1023 0 0 empty empty empty -2 -8 0 10 -262144
-1 -1 0 1;
#X obj 297 278 / 32768;
#X obj 400 328 s MOT\$1-pot;
#X obj 741 252 bng 15 250 50 0 empty empty empty 17 7 0 10 -262144
-1 -1;
#X msg 428 498 0;
#X obj 280 540 hsl 128 15 -1023 0 0 0 empty empty empty -2 -8 0 10
-262144 -1 -1 0 1;
#X obj 250 329 bng 15 250 50 0 empty empty empty 17 7 0 10 -262144
-1 -1;
#X msg 16 391 0;
#X obj 16 414 s MOT\$1-homed;
#X obj 4 495 s MOT\$1-realPos;
#X obj 38 473 r MOT\$1-offset;
#X floatatom 117 508 5 0 0 0 - - -, f 5;
#X obj 4 473 +;
#X floatatom 432 370 8 0 0 0 - - -, f 8;
#X obj 668 408 r MOT\$1-acceleration;
#N canvas 0 79 450 300 waitstop 0;
#X obj 110 27 inlet;
#X obj 110 113 spigot;
#X obj 178 21 r MOT\$1-stopped;
#X obj 110 92 f 1200;
#X obj 178 43 t f f;
#X obj 153 67 sel 1;
#X obj 110 157 outlet;
#X obj 110 135 change -1;
#X connect 0 0 3 0;
#X connect 1 0 7 0;
#X connect 2 0 4 0;
#X connect 3 0 1 0;
#X connect 4 0 5 0;
#X connect 4 1 1 1;
#X connect 5 0 3 0;
#X connect 7 0 6 0;
#X restore 668 498 pd waitstop;
#X obj 668 452 / 100;
#X obj 668 541 s Mot\$1-Mot-ramp-params;
#X msg 668 519 accel \$1 \, decel \$1;
#X obj 770 446 hsl 128 15 0 100 0 0 empty empty empty -2 -8 0 10 -262144
-1 -1 0 1;
#X obj 511 329 route POS\$1 stop ACCEL\$1;
#X obj 621 371 s MOT\$1-acceleration;
#X obj 842 343 s MONITOR;
#X obj 884 300 r reSend;
#X obj 842 276 r MOT\$1-acceleration;
#X obj 842 321 list prepend ACCEL\$1;
#X obj 767 474 s MOT\$1-acceleration;
#X obj 668 430 clip 10 100;
#N canvas 203 110 456 361 isStopped 0;
#X obj 189 14 inlet;
#X obj 171 231 outlet;
#X obj 103 16 loadbang;
#X obj 103 58 metro 100;
#X obj 103 38 tgl 15 0 empty empty empty 17 7 0 10 -262144 -1 -1 1
1;
#X msg 189 167 1;
#X msg 221 167 0;
#X obj 189 38 change -1;
#X obj 189 123 del 1000;
#X obj 171 204 f;
#X obj 189 73 t b f;
#X connect 0 0 7 0;
#X connect 2 0 4 0;
#X connect 2 0 8 0;
#X connect 3 0 9 0;
#X connect 4 0 3 0;
#X connect 5 0 9 1;
#X connect 6 0 9 1;
#X connect 7 0 10 0;
#X connect 8 0 5 0;
#X connect 9 0 1 0;
#X connect 10 0 8 0;
#X connect 10 1 6 0;
#X restore 217 409 pd isStopped;
#X obj 842 300 f 100;
#X floatatom 406 244 5 0 0 0 - - -, f 5;
#X msg 841 628 FORCE\$1;
#X obj 841 605 tgl 15 0 empty empty empty 17 7 0 10 -262144 -1 -1 0
1;
#X obj 297 303 maxlib/scale 0.1 0.9 360 -360;
#X obj 668 476 * 2400;
#X text 882 534 6593;
#X msg 879 554 13066 6593;
#X obj 881 579 -;
#X floatatom 881 601 5 0 0 0 - - -, f 5;
#X msg 997 543 60;
#X obj 997 565 * 4;
#X floatatom 997 609 5 0 0 0 - - -, f 5;
#X obj 997 587 * 6;
#X msg 1038 540 300;
#X floatatom 1039 483 5 0 0 0 - - -, f 5;
#X msg 1074 547 60;
#X obj 1074 569 * 4;
#X msg 1115 544 300;
#X obj 1074 591 * 4;
#X floatatom 1074 613 5 0 0 0 - - -, f 5;
#X obj 990 403 -;
#X floatatom 990 425 5 0 0 0 - - -, f 5;
#X msg 988 378 13125 6593;
#X floatatom 313 487 5 0 0 0 - - -, f 5;
#X text 968 97 -362 = -1351;
#X text 965 120 362 = 11752;
#X msg 1012 153 11752 1351;
#X obj 1012 175 +;
#X obj 1012 197 / 724;
#X obj 1012 219 * 360;
#X floatatom 1012 241 5 0 0 0 - - -, f 5;
#X obj 23 645 maxlib/scale -360 360 -6504 6504;
#X obj 4 452 maxlib/scale -6504 6504 -360 360;
#X obj 401 468 r STOPMOTORS;
#X connect 1 0 5 0;
#X connect 1 0 29 0;
#X connect 2 0 3 0;
#X connect 2 0 87 0;
#X connect 2 1 4 0;
#X connect 3 0 8 0;
#X connect 4 0 8 0;
#X connect 5 0 6 0;
#X connect 6 0 81 0;
#X connect 6 0 110 0;
#X connect 9 0 3 0;
#X connect 10 0 48 0;
#X connect 11 0 49 0;
#X connect 12 0 11 0;
#X connect 13 0 10 0;
#X connect 14 0 141 0;
#X connect 15 0 14 1;
#X connect 16 0 17 0;
#X connect 16 0 133 0;
#X connect 18 0 12 0;
#X connect 19 0 16 0;
#X connect 19 1 18 0;
#X connect 21 0 22 0;
#X connect 22 0 23 0;
#X connect 23 0 25 0;
#X connect 24 0 26 1;
#X connect 25 0 24 0;
#X connect 28 0 19 0;
#X connect 29 0 2 0;
#X connect 29 1 30 0;
#X connect 30 0 31 0;
#X connect 30 1 32 0;
#X connect 30 2 33 0;
#X connect 30 3 34 0;
#X connect 31 0 108 0;
#X connect 31 0 142 0;
#X connect 33 0 35 0;
#X connect 44 0 14 0;
#X connect 45 0 44 1;
#X connect 47 0 44 0;
#X connect 50 0 14 0;
#X connect 51 0 55 0;
#X connect 51 1 56 0;
#X connect 52 0 51 0;
#X connect 54 0 55 0;
#X connect 55 0 53 0;
#X connect 56 0 53 0;
#X connect 57 0 46 0;
#X connect 59 0 62 0;
#X connect 60 0 59 0;
#X connect 60 1 61 0;
#X connect 61 0 59 1;
#X connect 62 0 68 0;
#X connect 62 1 65 0;
#X connect 63 0 64 0;
#X connect 64 0 66 0;
#X connect 65 0 63 1;
#X connect 67 0 100 0;
#X connect 68 0 63 0;
#X connect 69 0 64 0;
#X connect 70 0 73 0;
#X connect 71 0 72 0;
#X connect 73 0 71 0;
#X connect 74 0 73 0;
#X connect 77 0 26 1;
#X connect 78 0 26 0;
#X connect 79 0 78 0;
#X connect 80 0 79 0;
#X connect 81 0 75 0;
#X connect 81 0 113 0;
#X connect 83 0 46 0;
#X connect 84 0 80 0;
#X connect 84 0 85 0;
#X connect 85 0 79 0;
#X connect 86 0 19 0;
#X connect 87 0 88 0;
#X connect 90 0 92 1;
#X connect 92 0 91 0;
#X connect 92 0 89 0;
#X connect 94 0 107 0;
#X connect 95 0 98 0;
#X connect 96 0 114 0;
#X connect 98 0 97 0;
#X connect 99 0 106 0;
#X connect 100 0 60 0;
#X connect 100 1 69 0;
#X connect 100 2 101 0;
#X connect 103 0 109 0;
#X connect 104 0 109 0;
#X connect 105 0 102 0;
#X connect 107 0 96 0;
#X connect 108 0 38 0;
#X connect 108 0 58 0;
#X connect 109 0 105 0;
#X connect 111 0 26 1;
#X connect 112 0 111 0;
#X connect 113 0 16 1;
#X connect 113 0 82 0;
#X connect 113 0 93 0;
#X connect 114 0 95 0;
#X connect 116 0 117 0;
#X connect 117 0 118 0;
#X connect 119 0 120 0;
#X connect 120 0 122 0;
#X connect 122 0 121 0;
#X connect 123 0 120 0;
#X connect 124 0 120 0;
#X connect 125 0 126 0;
#X connect 126 0 128 0;
#X connect 127 0 126 0;
#X connect 128 0 129 0;
#X connect 130 0 131 0;
#X connect 132 0 130 0;
#X connect 136 0 137 0;
#X connect 137 0 138 0;
#X connect 138 0 139 0;
#X connect 139 0 140 0;
#X connect 141 0 10 0;
#X connect 142 0 92 0;
#X connect 143 0 84 0;
#X restore 134 59 pd MOT\$1-guts;
#X obj 97 136 s pd-MOT\$1-guts;
#X obj 11 103 nbx 5 14 -1000 1000 0 0 MOT\$1-pot MOT\$1-pot posmesurePot
0 -5 0 10 -262144 -1 -1 0.933808 256;
#X obj 11 134 nbx 5 14 10 100 0 0 MOT\$1-acceleration MOT\$1-acceleration
acceleration 0 -5 0 10 -262144 -1 -1 100 256;
#X connect 3 0 4 0;
#X connect 4 0 6 0;
#X coords 0 -1 1 1 106 143 1 10 10;
