#N canvas 15 75 396 265 10;
#X obj 14 26 hsl 128 15 0 100 0 0 \$0-remote-snd \$0-remote-rcv set
20 8 0 10 -257985 -1 -1 7200 1;
#X obj 14 42 hsl 128 10 0 100 0 0 \$0-current-snd \$0-current-rcv current:56.6929
20 5 0 10 -262130 -1 -1 7200 1;
#X obj 35 100 r CLIENT_MONITOR;
#X obj 35 122 route LAMPE\$1;
#X obj 35 166 s \$0-current-rcv;
#X msg 35 144 \$1 \, label current:\$1;
#X obj 203 136 list prepend LAMPE\$1;
#X obj 203 158 s CLIENT_REMOTE;
#X obj 203 114 r \$0-remote-snd;
#X msg 176 180 label set:\$1;
#X obj 176 203 s \$0-remote-rcv;
#X connect 2 0 3 0;
#X connect 3 0 5 0;
#X connect 5 0 4 0;
#X connect 6 0 7 0;
#X connect 8 0 6 0;
#X connect 8 0 9 0;
#X connect 9 0 10 0;
#X coords 0 -1 1 1 135 42 1 10 10;
