#N canvas 55 130 747 596 10;
#X obj 101 114 bng 30 250 50 0 \$0-b-snd \$0-b-rcv 1 10 15 0 14 -257985
-1 -1;
#X obj 138 114 hsl 100 30 0 1 0 0 \$0-time-snd \$0-time-rcv play:003/030
5 10 0 12 -241291 -1 -1 990 1;
#X obj 131 195 loadbang;
#X obj 131 217 f \$2;
#X obj 131 296 s \$0-b-rcv;
#X obj 103 196 bng 15 250 50 0 empty empty empty 17 7 0 10 -262144
-1 -1;
#X msg 131 274 label \$1;
#X obj 131 239 makefilename %s;
#X obj 278 177 r CLIENT-fromserver;
#X obj 290 199 route control;
#X obj 278 221 route seq;
#X obj 454 277 == \$2;
#X obj 454 299 sel 0 1;
#X obj 410 391 route END;
#X msg 477 321 color 15 22 22;
#X obj 454 367 s \$0-time-rcv;
#X obj 278 311 spigot;
#X obj 278 333 pack f f;
#X obj 278 356 t a a;
#X obj 310 378 /;
#X obj 309 541 s \$0-time-rcv;
#X msg 454 345 color 0 0 22;
#X obj 165 352 r \$0-b-snd;
#X obj 165 381 bng 15 250 50 0 empty empty empty 17 7 0 10 -262144
-1 -1;
#X obj 165 534 s CLIENT-toserver;
#X obj 165 480 f \$2;
#X floatatom 241 281 5 0 0 0 - - -, f 5;
#X floatatom 370 277 5 0 0 0 - - -, f 5;
#X floatatom 289 281 5 0 0 0 - - -, f 5;
#X msg 184 433 3 5;
#X obj 278 404 unpack f f;
#X obj 278 468 pack s s;
#X msg 278 497 label play:\$1/\$2;
#X obj 278 427 makefilename %.3d;
#X obj 345 447 makefilename %.3d;
#X obj 482 148 loadbang;
#X obj 480 171 b;
#X obj 462 152 bng 15 250 50 0 empty empty empty 17 7 0 10 -262144
-1 -1;
#X obj 278 243 route time length linenb line nb stop;
#X obj 529 276 bng 15 250 50 0 empty empty empty 17 7 0 10 -262144
-1 -1;
#X obj 531 180 r CLIENT-toserver;
#X obj 531 199 route seq;
#X obj 531 219 route stop;
#X msg 165 507 seq load \$1;
#X obj 241 114 cnv 8 5 30 empty \$0-line-can line:10 -80 23 0 10 -262144
-258699 0;
#X obj 558 369 s \$0-line-can;
#X msg 558 345 color 0 0 0;
#X msg 576 321 color 0 0 13;
#X msg 351 304 label line:\$1;
#X obj 351 324 s \$0-line-can;
#X obj 431 499 list;
#X msg 431 524 label stop:\$1/\$2;
#X msg 410 415 label;
#X obj 469 446 f;
#X obj 531 241 b;
#X obj 469 468 sel 1;
#X connect 2 0 3 0;
#X connect 3 0 7 0;
#X connect 5 0 3 0;
#X connect 6 0 4 0;
#X connect 7 0 6 0;
#X connect 8 0 10 0;
#X connect 9 0 10 0;
#X connect 10 0 38 0;
#X connect 11 0 12 0;
#X connect 11 0 16 1;
#X connect 11 0 53 1;
#X connect 12 0 21 0;
#X connect 12 0 52 0;
#X connect 12 0 46 0;
#X connect 12 1 14 0;
#X connect 12 1 47 0;
#X connect 13 0 52 0;
#X connect 14 0 15 0;
#X connect 16 0 17 0;
#X connect 17 0 18 0;
#X connect 18 0 30 0;
#X connect 18 1 19 0;
#X connect 19 0 20 0;
#X connect 21 0 15 0;
#X connect 22 0 23 0;
#X connect 23 0 25 0;
#X connect 25 0 43 0;
#X connect 29 0 30 0;
#X connect 30 0 33 0;
#X connect 30 1 34 0;
#X connect 31 0 32 0;
#X connect 31 0 50 1;
#X connect 32 0 20 0;
#X connect 33 0 31 0;
#X connect 34 0 31 1;
#X connect 35 0 36 0;
#X connect 36 0 21 0;
#X connect 36 0 52 0;
#X connect 36 0 46 0;
#X connect 37 0 36 0;
#X connect 38 0 16 0;
#X connect 38 0 26 0;
#X connect 38 1 17 1;
#X connect 38 1 28 0;
#X connect 38 2 27 0;
#X connect 38 2 48 0;
#X connect 38 3 13 0;
#X connect 38 4 11 0;
#X connect 38 5 39 0;
#X connect 40 0 41 0;
#X connect 41 0 42 0;
#X connect 42 0 54 0;
#X connect 43 0 24 0;
#X connect 46 0 45 0;
#X connect 47 0 45 0;
#X connect 48 0 49 0;
#X connect 50 0 51 0;
#X connect 51 0 20 0;
#X connect 52 0 20 0;
#X connect 52 0 45 0;
#X connect 53 0 55 0;
#X connect 54 0 53 0;
#X connect 55 0 50 0;
#X coords 0 -1 1 1 150 50 1 100 100;
