#N canvas 908 74 487 449 10;
#X obj 95 42 inlet;
#X obj 95 64 route send clear setl;
#X floatatom 95 148 5 0 0 0 - - -, f 5;
#X obj 36 197 t f b;
#X obj 22 210 until;
#X obj 95 272 i;
#X obj 133 273 + 1;
#X obj 127 314 t f f;
#X obj 127 360 list prepend 0;
#X msg 95 188 0;
#X obj 95 100 t b b;
#X obj 127 382 list prepend setl;
#X msg 257 382 clear;
#X obj 95 126 text size \$1;
#X obj 127 338 text get \$1;
#X obj 127 415 outlet;
#X obj 217 199 s \$1;
#X obj 314 200 list split 1;
#X obj 346 224 list split 1;
#X obj 322 259 text set \$1;
#X obj 59 100 bng 15 250 50 0 empty empty empty 17 7 0 10 -262144 -1
-1;
#X msg 345 337 click;
#X msg 345 364 close;
#X msg 217 177 close \, clear;
#X obj 314 178 t l l b;
#X obj 421 296 del 500;
#X obj 95 318 sel;
#X obj 95 294 t f f;
#X obj 203 416 outlet finished_send;
#X obj 95 167 t b f;
#X obj 36 296 b;
#X obj 36 318 del 0;
#X obj 127 191 - 1;
#X connect 0 0 1 0;
#X connect 1 0 10 0;
#X connect 1 1 23 0;
#X connect 1 2 24 0;
#X connect 2 0 29 0;
#X connect 5 0 6 0;
#X connect 5 0 27 0;
#X connect 6 0 5 1;
#X connect 7 0 14 0;
#X connect 7 1 8 1;
#X connect 8 0 11 0;
#X connect 9 0 5 0;
#X connect 10 0 13 0;
#X connect 10 1 12 0;
#X connect 11 0 15 0;
#X connect 12 0 15 0;
#X connect 13 0 2 0;
#X connect 14 0 8 0;
#X connect 17 1 19 0;
#X connect 18 0 19 1;
#X connect 20 0 13 0;
#X connect 21 0 16 0;
#X connect 22 0 16 0;
#X connect 23 0 16 0;
#X connect 24 0 17 0;
#X connect 24 1 18 0;
#X connect 24 2 25 0;
#X connect 26 0 28 0;
#X connect 26 1 30 0;
#X connect 27 0 26 0;
#X connect 27 1 7 0;
#X connect 29 0 9 0;
#X connect 29 1 32 0;
#X connect 30 0 31 0;
#X connect 31 0 5 0;
#X connect 32 0 26 1;
